<?xml version="1.0" encoding="utf-8"?>
<!-- Generator: Adobe Illustrator 26.4.0, SVG Export Plug-In . SVG Version: 6.00 Build 0)  -->
<svg version="1.1" id="Ebene_1" xmlns="http://www.w3.org/2000/svg" xmlns:xlink="http://www.w3.org/1999/xlink" width="175" height="110" x="0px" y="0px"
	 viewBox="0 0 462 289" style="enable-background:new 0 0 462 289;" xml:space="preserve">
<style type="text/css">
	.st0{fill:#00818B;}
	.st1{fill:#F7BB3D;}
	.st2{fill:#C0003C;}
	.st3{fill:#80CDEC;}
	.st4{fill:#5F316E;}
</style>
<path class="st0" d="M143.8,105.5c-1,0-2,0-3,0s-1.7-1.3-2.6-0.8c-2.2,1.3-6.1,3.3-8.6,4.1c-1,0.4-2.1,0.8-2.9,0.9
	c-2-0.6-3.7-1.7-5.2-3.2c-4.3-4.2-5.8-10.9-6.6-16.6c-0.3-2.3-0.5-4.6-0.7-6.9c1.5-2.9,3-5.7,4.4-8.6c3.1-6.1,6.2-12,8.1-18.7
	c1.6-6,2.2-13.8-0.1-19.7c-0.7-1.7-2-3.6-4-3.7c-1.5-0.1-3.1-0.1-4.6-0.1s-3.3-0.2-4.8,0.1c-4.7,1.2-6.4,7.6-7.2,11.8
	c-1.2,6.4-0.9,13.2-0.9,19.6c0,6.3,0.3,12.7,0.7,19.1c-2.4,4.6-5,9.1-7.9,13.4c-3.7,5.5-8.2,11.2-14.3,14.1c0.9-0.4,3.3,0.1,4.2,0.1
	c1.1,0,3.2,0.4,4.2-0.1c6.5-3,11.3-9,15.3-15.3c0.5,2.3,1.3,4.5,2.3,6.6c2.2,4.6,5.9,7.9,11,8.6c8.7,1.2,16.8-0.3,24.4-4.6
	C144.9,105.6,143.9,105.5,143.8,105.5z M114.4,44.6c0.5-2.8,1.4-6.7,3.4-9.4c0.7,1.3,1.1,2.9,1.3,4.2c1,4.5,0.4,10.2-0.5,14.7
	c-1,4.7-2.9,9.1-4.9,13.4c0-1,0-2,0-2.9C113.6,58,113.3,51.1,114.4,44.6z"/>
<path class="st1" d="M158.7,47.8c0.2,8.4-0.1,19.2,0.1,27.6c0.2,8.5,0.5,17.4,3.1,25.6c0.9,2.8,2.2,5.7,4.4,7.7
	c2.8,2.5,6.9,1.9,10.3,1.9c3.1,0,4.7,0,7.2-2.1c2.2-1.8,3.5-4.4,4.6-7c3.5-8.8,3.9-18.9,4.1-28.2c0.2-7.7-0.1-17.7-0.1-25.4
	c0-0.1-8.5-0.1-8.5,0c0,13.7,0.8,26.5-1.3,43.3c-0.9,5.9-1.2,13.2-5.9,17.3c-0.5,0.4-0.8,0.6-1,0.8c-1.9-1.3-3.2-3.5-4.1-5.6
	c-3.5-7.9-3.7-17.5-4-26c-0.3-9.1,0.1-20.7-0.1-29.8C167.2,47.6,158.7,47.7,158.7,47.8"/>
<path class="st2" d="M161.5,109.4c-0.8,0-7.6,0.3-10.6-1.1c-2.2-1.2-2.6-2-3.8-3.7c-2.9-4.3-2.9-10.2-2.8-15.2
	c0.1-7.3,0.2-14.6,0.3-21.9l10.1,0.1l-0.2-7.4h-9.9c0.1-9,0.1-17.9,0.1-27c0-0.1-8.5-0.1-8.5,0c0,9,0.4,18,0.1,26.9h-7.5l-0.2,7.2
	l7.5,0.1c-0.3,8.7-0.3,16.2-0.3,24.4c0,5.1,0,10.8,3.7,14.6c4.1,4.2,10.9,4.1,16.3,4.1c1.9,0,4.7,0,6.8,0
	C162.2,110.1,161.7,109.5,161.5,109.4z"/>
<g>
	<path class="st3" d="M95.2,48c0-0.1-8.5-0.1-8.5,0c0,11.3,1,22.6,0.7,33.9c-0.2,5.7-0.8,11.4-2.5,16.8c-0.8,2.4-1.9,4.6-3.3,6.7
		c-1.1,1.7-1.6,2.5-2.6,3.1c-1.9-1.8-3.2-4.4-4.1-6.5c-2-4.7-2.7-9.6-3.1-14.7c-0.9-13.1-0.1-26.2-0.1-39.3c0-0.1-8.5-0.1-8.5,0
		c0,12.2-0.6,24.4,0,36.6c0.2,4.8,0.6,9.6,2,14.2c1.2,3.9,3.1,8.2,6.5,10.6c1.5,1,3.2,1,5,1c2.6,0,5.8,0.5,8.3-0.4
		c4.1-1.5,6.8-7,8.2-10.8c3.5-9.8,3-21,2.6-31.2C95.5,61.3,95.2,54.6,95.2,48z"/>
	<path class="st3" d="M226.7,50.5c-2.2-3.6-5.5-3.3-9.2-3.3c-3.9,0-6.6,0.8-9.5,3.5c-0.1-1-0.1-2-0.2-2.9h-4l-4.3,0.1
		c1.6,20.8,0.6,41.2,0.5,62l4.2,0.1l4.3-0.1c0-15.6,0.4-31,0-46.5c0.1-8.8,8.4-14.2,8.5-14.3c0.7,0.8,1.3,1.7,1.8,2.7
		c2.3,4.4,2.7,9.9,2.9,14.8c0,0,2,0.1,4.1,0.1c2.2,0,4.5-0.1,4.5-0.1C230.2,61.2,229.5,55.2,226.7,50.5z"/>
</g>
<g>
	<path class="st4" d="M34.5,110.1c0-1.2,0.1-22,0.1-44.8C42.3,80,47.2,96.2,56,110.2c0,0,3.9,0.2,8.8,0C54.7,94.7,49.6,72.9,38.3,56
		c8.3-10.6,15.3-20.7,20.5-33.2h-9.1c-4,9.4-9.2,17.4-15.1,25.3c0-9.2,0.1-18,0.1-25.2c0-0.1-8.6-0.1-8.6,0c0,0-0.3,58.4-0.3,87.2
		C25.9,110.1,29.3,110.3,34.5,110.1z"/>
	<path class="st4" d="M407.9,134.4c-0.8-7.9-5.8-12.4-13.5-13.6c-4.6-0.7-9.3-0.6-13.9-0.6c-1.5,0-2.9,0-4.4,0c-6.5,0-7.4,0-9.3,0
		c0,25,1,50,1,74.9c2.1,0,6,0.4,9.1-0.1c0-13.7-0.2-27.5-0.4-41.2c1.6,0.2,3.2,0.3,4.9,0.3c4.7,13.2,9.4,27.8,13.7,40.9
		c0,0,5,0.4,9.3,0c-1.9-5.9-9.2-27.6-14.1-41.2c2.8-0.3,5.6-0.8,8.3-1.7C406.5,149.6,408.7,142.1,407.9,134.4z M383.8,152
		c-1.4,0-4.8,0-7.4-0.6c-0.1-9.9-0.3-19.8-0.3-29.7c2.1-0.1,4.2-0.1,6.3-0.1c1.6,0,2.7,0,4.6,0.3c5.9,1.1,9.8,4.1,11.2,9.9
		c1.4,5.9,0.8,12.9-3.7,17.3C392.4,151.3,386.9,152,383.8,152z"/>
	<path class="st4" d="M329.5,120.2c-0.3,1-2,12.1-3,18.4c-0.9,6.3-2.3,12.5-3.5,18.7c-2.1,11.3-5.6,31.7-6.5,36.7
		c-1.9,0.1-4.9,0.1-6.5-0.8c-1.5-0.8-2-1.6-2.7-3.2c-2.3-5.3-1.8-11.5-2.1-17.1c-0.6-14.8,0.4-29.6,0.3-44.4l15.3,0.1l-0.3-8.4
		h-39.1l-0.4,8.1l15.2,0.1c0.1,17.5-1.3,34.9,0.1,52.4c0.4,4.5,0.3,10.7,4.6,13.5c1.3,0.9,4.4,0.9,8,1c3.5,0,6.6,0,11.5,0
		c3.1,0,5.1,0,5.1,0c2.5-12.6,4.3-25.1,6.6-37.8c0.2-1.4,0.5-2.7,0.8-4.1l14.4,0.1c1.9,14,3.9,28,6.3,41.8c0,0,4.8,0.4,9.2,0
		c-3.1-18.9-7.3-51.3-10.1-75L329.5,120.2z M334.6,146c0.5-2.4,0.9-4.9,1.3-7.4c0.6-3.6,1.1-7,1.6-10.4h7c0.7,5.9,1.4,11.8,2.2,17.8
		H334.6z"/>
	<path class="st4" d="M250.3,194.7c1.8,0.8,4.2,1.2,6.1,1.3c3.3,0.1,6.3,0.1,9.5-0.4c10.9-1.7,19.5-13.3,19.6-23.7
		c0.1-5.5-2.8-11.1-6.2-15c-3.5-4-8-5.6-12.8-7.7c-8-3.5-16.7-9.8-13.2-20.2c1.2-2.6,3-6,5.5-7.5c0.2-0.1,0.4-0.2,0.7-0.4
		c0.2,0,0.4,0,0.5,0.1c3,1,5,1.4,9.6,5c2-0.4,4.4-0.8,7.2-1.6c0,0-7.2-4.7-13.1-5.2c-3.6-0.1-7.3-0.3-10.8,0.1
		c-5.3,0.7-9,6.8-10,12.4c-0.8,4.4,2,11.1,4.6,13.5c2.7,2.4,7.7,5.7,11.4,7.2c3.6,1.5,9.4,3.1,12.6,7.6c6.8,9.5,5.5,20.2-4.9,30.1
		c-1.9,1.8-2.9,2.5-5.7,4.1c-0.4,0.2-0.8,0.4-1,0.5c-0.1,0-0.2-0.1-0.4-0.1c-5-2-7-9.1-8.6-13.9c-0.1-0.3-5.1-0.1-5.5-0.1
		c-0.3,0-4.6,0.2-4.7,0.1C242.6,185.8,245.3,192.4,250.3,194.7z"/>
	<path class="st4" d="M440,172.3c-4.4-8.8-6.3-13.3-10.8-22.3c6.4-8.4,15.3-20.7,20.2-29.7c-1.2,0-5.4-0.3-9.4,0
		c-0.5,0.7-5.1,7.6-16.1,23.2c-0.2-7.7-0.6-15.4-1.1-23.2c-1.8-0.1-6.7-0.1-8.7,0c1.6,25,1.7,50,1.7,75.1c3.2,0.3,5.5,0.3,8.7,0
		c0-12.4,0-24.8-0.2-37.2c2.4,5.3,4.4,10.6,6.6,14.8c3.5,6.5,6.2,12.3,10.8,22.3c2.5,0.3,6.7,0.3,9.3,0
		C446.4,185.1,443.7,179.8,440,172.3z"/>
	<path class="st4" d="M140.7,195.6c3.1,0.5,8.5,0.2,9.4,0.2c0.9,0,5.4,0.3,9.4-1.7c1.4-0.7,3.4-2.8,5.6-5.7c0,0.7,0,1.5,0.1,2.2
		c0.1,0.7-0.1,2.3-0.2,4.7c3.8,0,7.6,0,7.6,0c0.9-4.4,2.6-12.2,4.7-17.9c1.1-3.1,2.6-6.2,4.7-8.8c0.2-0.2,0.5-0.6,0.9-0.9
		c3.2,2.6,4.2,7.1,4.5,11.2c0.3,4.3-0.3,11.3,3.7,14.4c2.8,2.2,8.7,1.9,13.2,1.9c2.3,0,7.7,0,12.3,0c1.4,0,3,0,4.8,0
		c1.7,0,4.3,0,6.4,0c-0.2-0.2-1.2-1.1-1.4-1.2c-2.9,0-4.7,0.1-6.8-0.4c-3-0.8-4.2-2.4-5.4-4.1c-2.9-4.3-3.5-10.2-3.5-15.1
		c0-8.8,0-16.7,0-24.4l10,0.1l-0.2-7.4h-9.8c0-7.5,0-14.9,0-22.9c0-0.1-8.5-0.1-8.5,0c0,8.1,0.1,15.2,0.2,22.9h-7.6l-0.2,7.2
		l7.9,0.1c0,10.3-0.1,17.5,0,26.5c0,5.1,0.4,11.2,4.2,15c1.2,1.2,2.3,2,3.5,2.6c-4,0-5.7,0.1-8.1-0.3c-5-1-5.5-5.1-5.6-9.7
		c-0.2-5.9,0-11.5-4.7-15.9c-3.1-2.9-6.4-4-11.1-2.3c0,0-0.9,0.4-2.2,1.3c0.8-1.6,1.4-3,1.7-4.1c1.6-5.2,4.1-10.9,4-19.7
		c-0.1-10.4-4.2-19.8-7.8-23c-1.7-1.5-3.3-1.6-4.6-1.6c-1.4,0-3.9,0.7-5,2.1c-3.6,4.3-4.6,10.1-4.8,11.7c-0.7,5.8-1,11.5-0.8,17.3
		c0.4,10.5,2.2,20.3,3,30.8c-0.3,0.5-0.6,0.9-1,1.4c-3.6,5-9.8,11.3-15.6,13.1c-0.3,0.1-0.5,0.2-0.5,0.2c-0.6-0.1-1.1-0.4-1.6-0.7
		c-2.3-1.2-4.1-3.2-5.1-5.6c-4.9-11.9-4.8-28.2-2.4-36.7c1.3-4.8,5.1-9.2,7.5-9.9c0.7,0.7,1.4,1.5,1.9,2.1l8.4-0.9
		c-1.6-1.9-3.4-2.6-5.8-3c-3.1-0.6-6.7-0.5-9.8,0.3c-4.5,1.1-8.9,4.6-10.7,11c-1.8,6.4-3.4,24.5,1.4,35
		C132.9,191.3,135.8,194.9,140.7,195.6z M169.6,132.9c0.6-5.1,2.4-11,2.7-11.5c2.1,3.9,4.5,11.2,4.1,22.6c-0.3,8.4-4,21.5-5.2,23.8
		c-0.2,0.5-0.5,1-0.8,1.6c-0.5-7.4-0.9-15.2-1-21.5C169.1,142.2,169,138.5,169.6,132.9z"/>
	<path class="st4" d="M60.4,141.3c-2.8,0.2-4.9,1.4-6.5,3.1c-0.2-0.3-0.3-0.6-0.5-0.9c-1-1.6-2.4-2.1-4.1-2.2
		c-3.2-0.1-7-0.6-10.2,0.5c-1.3,0.5-2.6,1.2-3.8,2c0-1.1,0-2.2,0-3.3c0-0.1-8.5-0.1-8.5,0c0,19.2-0.6,35.5-0.6,54.6
		c0,0.1,8.6,0.1,8.6,0c0-15.3,0.4-28.8,0.6-43.4c3-3,6-6.1,9.6-8.5c0.4,0.6,1,1.8,1.5,3.6c0.9,3.4,1,7.1,1.2,10.7
		c0.2,4.5,0.4,6.6,0.5,11.2c0.2,8.8,0.2,17.6,0.2,26.4c0,0.1,8.5,0.1,8.5,0c0-10,0.3-38,0-42.8v-0.1c2.2-3.7,4.1-7.2,8.4-9.9
		c0.6-0.3,1.1,0.7,1.8,1.7c1.4,2,1.6,4.7,1.7,7c0.4,6.7,0,11,0.2,17.7c0.3,8.9,0.7,17.7,0.7,26.6c0,0.1,8.6,0.1,8.6,0
		c0-9.8-0.5-19.6-0.8-29.4c-0.1-4.2-0.2-5.9-0.1-10.1c0.1-3,0.1-5.9-0.5-8.8c-0.6-2.4-2-4.4-4.3-5.3c-1.2-0.5-2.7-0.4-4-0.5
		C65.6,141.2,63,141.1,60.4,141.3z"/>
	<path class="st4" d="M92.5,195.5c2.5,0.6,5.3,0.4,7.8,0.4c2.8,0,5.7,0.1,8.5-0.4c4.3-0.7,8.9-1.9,12.5-2.8c0.1,0,0.1,0,0.1,0
		s0,0,0.1,0c0,0,0.1,0,0.1-0.1c2-9.7,1.5-20,1-29.9c-0.3-7.3,0.1-15.1-6.5-19.7c-2.2-1.6-5-2.3-7.7-2.6c-4.3-0.4-9.2-0.6-13.4,0.1
		c-5.8,0.9-10.1,5.1-10,11.2c0,0.2,10,0.1,10,0c-0.1-5,2.7-8.8,7.3-10.5c0.2,0,0.4,0.1,0.9,0.3c2.4,0.9,4.5,2.5,6.1,4.5
		c1.8,2.3,2.6,5.1,2.9,8c0.3,4,0.5,8.1,0.6,12.1c0,0.4,0,0.8,0,1.1c-4.6-3.1-11.6-2.3-16.8-2.2c-5,0.1-8.6,1.6-11.1,6.1
		C80.2,179.3,81.9,193,92.5,195.5z M94.8,171c1.3-2.6,3.2-4.3,5.5-5.2c0.3,0.1,0.5,0.2,1.2,0.6c1.7,1,3.1,2.1,4.2,3.6
		c5,5.9,6,14.9,5.8,22.4c-3.4,0.8-9,2.7-10.5,2.8c-1.6-0.3-2.2-1-3.2-1.7C90.9,188.2,91.3,177.9,94.8,171z"/>
	<path class="st4" d="M48,240.9c0-2-1.7-3.1-4.8-3.2h-1.8v6.5h1.7C46.6,244.2,48,243.1,48,240.9z"/>
	<path class="st4" d="M252.5,244.6c1.6,0,2.5-0.8,3-1.3v-8c-0.5-0.3-1.2-0.6-2.3-0.6c-2.5,0-4.1,1.5-4.1,5S250.6,244.6,252.5,244.6z
		"/>
	<path class="st4" d="M47.5,231.7c0-1.7-1.3-2.9-4.7-2.9h-1.4v6.3h1.4C46,235.1,47.5,233.9,47.5,231.7z"/>
	<path class="st4" d="M223.5,231.7c0-1.7-1.3-2.9-4.6-2.9h-1.4v6.3h1.3C222,235.1,223.5,233.9,223.5,231.7z"/>
	<path class="st4" d="M92.7,244.6c1.7,0,2.6-0.8,3-1.3v-8c-0.5-0.3-1.2-0.6-2.3-0.6c-2.5,0-4.1,1.5-4.1,5S90.8,244.6,92.7,244.6z"/>
	<path class="st4" d="M224,240.9c0-2-1.7-3.1-4.7-3.2h-1.8v6.5h1.6C222.6,244.2,224,243.1,224,240.9z"/>
	<path class="st4" d="M299.5,239.5c1.5,0,2.8-0.7,2.8-2.6c0-1.8-1.3-2.6-2.8-2.6s-2.8,0.7-2.8,2.6
		C296.7,238.8,298.1,239.5,299.5,239.5z"/>
	<path class="st4" d="M298.8,250.9c3.2,0,4.7-1.2,4.7-2.6c0-1.2-0.6-1.7-2.2-1.7h-3.1c-0.5,0-0.9-0.1-1.3-0.1
		c-0.6,0.4-1.2,1.1-1.2,2.2C295.7,250.2,296.8,250.9,298.8,250.9z"/>
	<path class="st4" d="M25.9,258.7h293.2v-42.6H25.9V258.7z M121.9,246.9h-3.1v-14.5h3.1V246.9z M234.1,246.9H231v-14.5h3.1V246.9z
		 M294.7,243.9c0-1.6,1.3-2.4,1.7-2.6v-0.1c-1.4-0.8-2.4-2.2-2.4-4.3c0-3.3,2.5-4.9,5.6-4.9c0.8,0,1.5,0.2,2.2,0.4h5l-0.3,2.1h-2
		c0.4,0.8,0.7,1.6,0.7,2.5c0,3.2-2.5,4.9-5.7,4.9c-0.4,0-0.9,0-1.3-0.1c-0.4,0.2-0.9,0.6-0.9,1.2c0,0.6,0.4,1,1.3,1h3
		c3.1,0,4.9,1.3,4.9,3.9c0,2.9-2.6,5.4-7.8,5.4c-3.6,0-5.5-1.4-5.5-3.9c0-2,1.5-2.9,2.4-3.4v-0.1C295,245.4,294.7,244.7,294.7,243.9
		z M278.4,232.5L278.4,232.5h2.8v1.6h0.1c0.5-0.7,1.9-2,4.3-2c3.1,0,4.8,2,4.8,5.8v9h-3v-8.6c0-2.5-0.7-3.6-2.6-3.6
		c-1.6,0-2.7,0.7-3.3,1.3v11h-3.1V232.5z M262.4,232.4h3.1v8.5c0,2.6,0.7,3.7,2.5,3.7c1.7,0,2.6-0.7,3.2-1.3v-10.9h3.1v14.4h-2.8
		v-1.6h-0.1c-0.5,0.6-1.7,2-4.3,2c-3.1,0-4.7-1.9-4.7-5.8V232.4z M252.9,232.1c1.2,0,2.1,0.3,2.6,0.6v-7l3-0.3v21.4h-2.8v-1.6h-0.1
		c-0.3,0.6-1.3,2-4.1,2c-3.2,0-5.6-2.5-5.6-7.4C245.9,234.5,249.3,232.1,252.9,232.1z M238.6,225.7l3-0.3h0.1v17.4
		c0,1.5,0.3,1.9,1.3,1.9c0.5,0,0.8-0.1,1-0.2l0.2,2.1c-0.2,0.1-1,0.5-2.2,0.5c-2.1,0-3.4-1-3.4-4V225.7z M232.6,225.6
		c1.1,0,1.9,0.7,1.9,1.9c0,1.1-0.8,1.9-1.9,1.9c-1.1,0-1.9-0.7-1.9-1.9S231.5,225.6,232.6,225.6z M214.2,226.2h4.6
		c5.9,0,8,2.1,8,5.4c0,2.9-1.8,4-3.7,4.6v0.1c2.2,0.4,4.3,2.1,4.3,4.9c0,3.3-2.5,5.7-8.3,5.7h-4.9V226.2z M196.7,232.3h2.8v2.1h0.1
		c0.6-1.1,1.6-2.3,3.7-2.3c0.6,0,1.1,0.1,1.3,0.2l-0.3,2.6c-0.1-0.1-0.5-0.2-1.2-0.2c-1.8,0-2.9,1-3.3,1.8v10.3h-3.1V232.3z
		 M189.4,226.6c1,0,1.7,0.7,1.7,1.7s-0.8,1.7-1.7,1.7c-1,0-1.7-0.7-1.7-1.7S188.4,226.6,189.4,226.6z M184,226.6
		c1,0,1.7,0.7,1.7,1.7S185,230,184,230s-1.7-0.7-1.7-1.7S183,226.6,184,226.6z M180.8,232.4h3.1v8.5c0,2.6,0.7,3.7,2.5,3.7
		c1.7,0,2.6-0.7,3.2-1.3v-10.9h3.1v14.4h-2.8v-1.6h-0.1c-0.5,0.6-1.7,2-4.3,2c-3.1,0-4.7-1.9-4.7-5.8V232.4z M169.7,232.9l2-0.4
		v-1.9c0-3.5,1.8-5.3,4.9-5.3c1.2,0,2,0.4,2.2,0.5l-0.5,2.5c-0.2-0.1-0.8-0.4-1.5-0.4c-1.4,0-2.1,0.7-2.1,2.6v1.9h3.7l-0.3,2.6h-3.4
		v12h-3v-12h-2V232.9z M155.9,232.1c3,0,4.9,2,4.9,5.7c0,1.1-0.2,1.9-0.4,2.6h-8.1c0.2,3,1.7,4.3,4.2,4.3c2.1,0,3.3-1,3.7-1.3
		l0.8,2.2c-0.4,0.4-1.7,1.7-4.9,1.7c-4,0-6.6-2.3-6.6-7.7C149.5,234.4,152.5,232.1,155.9,232.1z M141.7,240.8l-1-0.5
		c-2.1-1-3.2-2.3-3.2-4.4c0-2.3,2.1-3.9,4.9-3.9c2.3,0,3.5,1,4,1.4l-0.9,2.2c-0.5-0.4-1.5-1.2-3.1-1.2c-1.4,0-2.1,0.6-2.1,1.3
		c0,0.9,0.6,1.4,2,2.1l1,0.5c2.3,1.2,3.6,2.4,3.6,4.6c0,2.4-1.7,4.2-5.3,4.2c-2.5,0-3.8-0.9-4.5-1.5l1-2.5c0.6,0.6,1.7,1.5,3.4,1.5
		c1.6,0,2.5-0.6,2.5-1.4C144,242,143.3,241.6,141.7,240.8z M129.7,240.8l-1-0.5c-2.1-1-3.2-2.3-3.2-4.4c0-2.3,2.1-3.9,4.9-3.9
		c2.3,0,3.5,1,4,1.4l-0.9,2.2c-0.5-0.4-1.5-1.2-3.1-1.2c-1.4,0-2.1,0.6-2.1,1.3c0,0.9,0.6,1.4,2,2.1l1,0.5c2.3,1.2,3.6,2.4,3.6,4.6
		c0,2.4-1.7,4.2-5.3,4.2c-2.5,0-3.8-0.9-4.5-1.5l1-2.5c0.6,0.6,1.7,1.5,3.4,1.5c1.6,0,2.5-0.6,2.5-1.4
		C132,242,131.3,241.6,129.7,240.8z M120.5,225.6c1.1,0,1.9,0.7,1.9,1.9c0,1.1-0.9,1.9-1.9,1.9c-1.1,0-1.9-0.7-1.9-1.9
		S119.4,225.6,120.5,225.6z M102.8,232.5h2.8v1.6h0.1c0.5-0.7,1.9-2,4.3-2c3.1,0,4.8,2,4.8,5.8v9h-3v-8.6c0-2.5-0.7-3.6-2.6-3.6
		c-1.6,0-2.7,0.7-3.3,1.3v11h-3.1V232.5z M93.2,232.1c1.2,0,2.1,0.3,2.6,0.6v-7l3-0.3v21.4H96v-1.6h-0.1c-0.3,0.6-1.3,2-4.1,2
		c-3.2,0-5.6-2.5-5.6-7.4C86.2,234.5,89.6,232.1,93.2,232.1z M70.9,232.5h2.8v1.6h0.1c0.5-0.7,1.9-2,4.3-2c3.1,0,4.8,2,4.8,5.8v9h-3
		v-8.6c0-2.5-0.7-3.6-2.6-3.6c-1.6,0-2.7,0.7-3.3,1.3v11h-3.1V232.5z M63.5,226.6c1,0,1.7,0.7,1.7,1.7s-0.8,1.7-1.7,1.7
		c-1,0-1.7-0.7-1.7-1.7S62.5,226.6,63.5,226.6z M58.1,226.6c1,0,1.7,0.7,1.7,1.7s-0.7,1.7-1.7,1.7s-1.7-0.7-1.7-1.7
		S57.1,226.6,58.1,226.6z M54.8,232.4h3.1v8.5c0,2.6,0.7,3.7,2.5,3.7c1.7,0,2.6-0.7,3.2-1.3v-10.9h3.1h0.1v14.4H64v-1.6h-0.2
		c-0.5,0.6-1.7,2-4.3,2c-3.1,0-4.7-1.9-4.7-5.8V232.4z M38.2,226.2h4.6c5.9,0,8,2.1,8,5.4c0,2.9-1.8,4-3.7,4.6v0.1
		c2.2,0.4,4.3,2.1,4.3,4.9c0,3.3-2.5,5.7-8.3,5.7h-4.9V226.2z"/>
	<path class="st4" d="M158,237.4c0-1.8-1-2.9-2.5-2.9c-1.7,0-3,1.3-3.2,3.7h5.6C158,237.9,158,237.7,158,237.4z"/>
</g>
</svg>
