<?xml version="1.0" encoding="utf-8"?>
<!-- Generator: Adobe Illustrator 26.0.0, SVG Export Plug-In . SVG Version: 6.00 Build 0)  -->
<svg version="1.1" id="Ebene_1" xmlns="http://www.w3.org/2000/svg" xmlns:xlink="http://www.w3.org/1999/xlink" x="0px" y="0px"
	 viewBox="0 0 1360.6 422.8" style="enable-background:new 0 0 1360.6 422.8;" xml:space="preserve">
<style type="text/css">
	.st0{fill-rule:evenodd;clip-rule:evenodd;fill:#FECA00;}
	.st1{fill-rule:evenodd;clip-rule:evenodd;fill:#BB1F2E;}
</style>
<path class="st0" d="M308.7,366.5C210,365.6,118,310.6,46.1,205.4c-13.3-19.5-21.4-32.8-31.6-52.5l202-138.7
	c14.7,16.7,24.1,29,37.4,48.5C325.7,167.9,343.6,273.8,308.7,366.5"/>
<path class="st1" d="M261.9,74.9c11,17.1,20.5,34.2,28.7,51.2L91.8,262.7c-12.9-13.8-25.4-28.9-37.2-45.4L261.9,74.9z M316.4,196.7
	c5.5,21.8,8.6,43.3,9.3,64.5l-121.1,83.2c-19.4-8.3-38.4-19.1-56.6-32.1L316.4,196.7L316.4,196.7z"/>
<g>
	<path d="M441.2,140.7c8.2,5,20.1,9.2,32.7,9.2c18.7,0,29.5-9.8,29.5-24.1c0-13.2-7.5-20.8-26.6-28.1c-23.1-8.2-37.3-20.1-37.3-40
		c0-22,18.2-38.4,45.7-38.4c14.5,0,24.9,3.4,31.2,6.9l-5,14.9c-4.6-2.5-14-6.7-26.8-6.7C465.3,34.5,458,46,458,55.6
		c0,13.2,8.6,19.7,28.1,27.2c23.9,9.2,36,20.8,36,41.5c0,21.8-16.1,40.7-49.5,40.7c-13.6,0-28.5-4-36-9L441.2,140.7z"/>
	<path d="M568,32.4v29.1h26.4v14H568v54.7c0,12.6,3.6,19.7,13.8,19.7c4.8,0,8.4-0.6,10.7-1.3l0.8,13.8c-3.6,1.5-9.2,2.5-16.4,2.5
		c-8.6,0-15.5-2.7-19.9-7.7c-5.2-5.4-7.1-14.5-7.1-26.4V75.5h-15.7v-14H550V37.2L568,32.4L568,32.4z"/>
	<path d="M671.3,163l-1.5-12.8h-0.6c-5.7,8-16.6,15.1-31,15.1c-20.5,0-31-14.5-31-29.1c0-24.5,21.8-37.9,61-37.7v-2.1
		c0-8.4-2.3-23.5-23.1-23.5c-9.4,0-19.3,2.9-26.4,7.5l-4.2-12.2c8.4-5.4,20.5-9,33.3-9c31,0,38.6,21.2,38.6,41.5v37.9
		c0,8.8,0.4,17.4,1.7,24.3L671.3,163L671.3,163z M668.6,111.2c-20.1-0.4-43,3.1-43,22.8c0,11.9,8,17.6,17.4,17.6
		c13.2,0,21.6-8.4,24.5-17c0.6-1.9,1-4,1-5.9L668.6,111.2L668.6,111.2z"/>
	<path d="M803.8,14.1v122.6c0,9,0.2,19.3,0.8,26.2H788l-0.8-17.6h-0.4c-5.7,11.3-18,19.9-34.6,19.9c-24.5,0-43.4-20.8-43.4-51.6
		c-0.2-33.7,20.7-54.5,45.5-54.5c15.5,0,26,7.3,30.6,15.5h0.4V14.1H803.8z M785.3,102.8c0-2.3-0.2-5.4-0.8-7.7
		c-2.7-11.7-12.8-21.4-26.6-21.4c-19.1,0-30.4,16.8-30.4,39.2c0,20.5,10.1,37.5,30,37.5c12.4,0,23.7-8.2,27-22c0.6-2.5,0.8-5,0.8-8
		V102.8L785.3,102.8z"/>
	<path d="M856.6,32.4v29.1H883v14h-26.4v54.7c0,12.6,3.6,19.7,13.8,19.7c4.8,0,8.4-0.6,10.7-1.3l0.8,13.8c-3.6,1.5-9.2,2.5-16.3,2.5
		c-8.6,0-15.5-2.7-19.9-7.7c-5.2-5.4-7.1-14.5-7.1-26.4V75.5h-15.7v-14h15.7V37.2L856.6,32.4L856.6,32.4z"/>
	<path d="M546.2,293.1c0,48.6-29.5,74.4-65.6,74.4s-63.5-28.9-63.5-71.7c0-44.9,27.9-74.2,65.6-74.2
		C520.5,221.6,546.2,251.1,546.2,293.1L546.2,293.1z M436.6,295.4c0,30.2,16.4,57.2,45.1,57.2S527,326,527,293.9
		c0-28.1-14.7-57.4-45.1-57.4S436.6,264.4,436.6,295.4z"/>
	<path d="M569.3,216.4h18.4v148.8h-18.4V216.4z"/>
	<path d="M706.3,216.4V339c0,9,0.2,19.3,0.8,26.2h-16.6l-0.8-17.6h-0.4c-5.7,11.3-18,19.9-34.6,19.9c-24.5,0-43.4-20.8-43.4-51.6
		c-0.2-33.7,20.8-54.5,45.5-54.5c15.5,0,26,7.3,30.6,15.5h0.4v-60.6h18.5V216.4z M687.9,305c0-2.3-0.2-5.4-0.8-7.7
		c-2.7-11.7-12.8-21.4-26.6-21.4c-19.1,0-30.4,16.8-30.4,39.2c0,20.5,10.1,37.5,30,37.5c12.4,0,23.7-8.2,27-22c0.6-2.5,0.8-5,0.8-8
		V305L687.9,305z"/>
	<path d="M747.2,317.8c0.4,24.9,16.4,35.2,34.8,35.2c13.2,0,21.2-2.3,28.1-5.2l3.1,13.2c-6.5,2.9-17.6,6.3-33.7,6.3
		c-31.2,0-49.9-20.5-49.9-51.1s18-54.7,47.6-54.7c33.1,0,41.9,29.1,41.9,47.8c0,3.8-0.4,6.7-0.6,8.6L747.2,317.8L747.2,317.8z
		 M801.3,304.6c0.2-11.7-4.8-30-25.6-30c-18.7,0-26.8,17.2-28.3,30H801.3z"/>
	<path d="M841.9,291.2c0-10.5-0.2-19.1-0.8-27.5h16.4l1,16.8h0.4c5-9.6,16.8-19.1,33.5-19.1c14,0,35.8,8.4,35.8,43.2v60.6h-18.4
		v-58.5c0-16.4-6.1-30-23.5-30c-12.2,0-21.6,8.6-24.7,18.9c-0.8,2.3-1.3,5.4-1.3,8.6v61h-18.4V291.2L841.9,291.2z"/>
	<path d="M957.4,365.2c0.4-6.9,0.8-17.2,0.8-26.2V216.4h18.2v63.7h0.4c6.5-11.3,18.2-18.7,34.6-18.7c25.1,0,43,21,42.7,51.8
		c0,36.3-22.8,54.3-45.5,54.3c-14.7,0-26.4-5.7-33.9-19.1h-0.6l-0.8,16.8L957.4,365.2L957.4,365.2z M976.4,324.5
		c0,2.3,0.4,4.6,0.8,6.7c3.6,12.8,14.3,21.6,27.7,21.6c19.3,0,30.8-15.7,30.8-39c0-20.3-10.5-37.7-30.2-37.7
		c-12.6,0-24.3,8.6-28.1,22.6c-0.4,2.1-1,4.6-1,7.5L976.4,324.5L976.4,324.5z"/>
	<path d="M1162.3,337.5c0,10.5,0.2,19.7,0.8,27.7h-16.4l-1-16.6h-0.4c-4.8,8.2-15.5,18.9-33.5,18.9c-15.9,0-35-8.8-35-44.4v-59.3
		h18.5V320c0,19.3,5.9,32.3,22.6,32.3c12.4,0,20.9-8.6,24.3-16.8c1-2.7,1.7-6.1,1.7-9.4v-62.2h18.4V337.5L1162.3,337.5z"/>
	<path d="M1192.9,295.4c0-11.9-0.2-22.2-0.8-31.6h16.1l0.6,19.9h0.8c4.6-13.6,15.7-22.2,28.1-22.2c2.1,0,3.6,0.2,5.2,0.6v17.4
		c-1.9-0.4-3.8-0.6-6.3-0.6c-13,0-22.2,9.8-24.7,23.7c-0.4,2.5-0.8,5.4-0.8,8.6v54.1h-18.2L1192.9,295.4L1192.9,295.4z"/>
	<path d="M1347.2,263.7c-0.4,7.3-0.8,15.5-0.8,27.9v58.9c0,23.3-4.6,37.5-14.5,46.3c-9.8,9.2-24.1,12.2-36.9,12.2
		s-25.6-2.9-33.7-8.4l4.6-14c6.7,4.2,17.2,8,29.8,8c18.9,0,32.7-9.8,32.7-35.4v-11.3h-0.4c-5.7,9.4-16.6,17-32.3,17
		c-25.1,0-43.2-21.4-43.2-49.5c0-34.4,22.4-53.9,45.7-53.9c17.6,0,27.2,9.2,31.6,17.6h0.4l0.8-15.3L1347.2,263.7L1347.2,263.7z
		 M1328.1,303.7c0-3.1-0.2-5.9-1-8.4c-3.3-10.7-12.4-19.5-25.8-19.5c-17.6,0-30.2,14.9-30.2,38.4c0,19.9,10.1,36.5,30,36.5
		c11.3,0,21.6-7.1,25.6-18.9c1-3.1,1.5-6.7,1.5-9.8L1328.1,303.7L1328.1,303.7z"/>
</g>
</svg>
